<svg viewBox="0 0 1920 1080" fill="none" xmlns="http://www.w3.org/2000/svg">
  <path fill="currentColor" d="M1669.2,280.6c3.3-3.3,4.8-8,4-12.6l16.8-5.6c0.7,1.4,1.6,2.6,2.7,3.7c5.6,5.6,14.7,5.5,20.2-0.1 c5.6-5.6,5.5-14.7-0.1-20.2c-5.6-5.6-14.7-5.5-20.2,0.1c-3.3,3.3-4.8,8.1-3.9,12.7l-16.8,5.6c-0.7-1.4-1.6-2.6-2.7-3.7 c-1.1-1.1-2.3-2-3.7-2.7l5.6-16.8c7.8,1.4,15.2-3.8,16.6-11.5c1.4-7.8-3.8-15.2-11.5-16.6c-7.8-1.4-15.2,3.8-16.6,11.5 c-0.8,4.6,0.7,9.3,4,12.6c1.1,1.1,2.3,2,3.7,2.7l-5.6,16.8c-7.8-1.4-15.2,3.7-16.6,11.5c-1.4,7.8,3.7,15.2,11.5,16.6 C1661.2,285.4,1665.9,283.9,1669.2,280.6L1669.2,280.6z M1454.7,46.2c7,2.6,14.8-0.9,17.5-7.8c2.6-7-0.8-14.8-7.8-17.5 c-7-2.6-14.8,0.8-17.5,7.8C1444.3,35.6,1447.8,43.4,1454.7,46.2z M1910.2,340.7l21.8,21.2l-5.1,30l26.9-14.2l26.9,14.2l-5.1-30 l21.8-21.2l-30.1-4.4l-13.5-27.3l-13.5,27.3L1910.2,340.7z M726.6,235.3c-3.3,3.3-4.8,8-4,12.6l-16.8,5.6 c-0.7-1.4-1.5-2.6-2.6-3.7c-1.1-1.1-2.3-2-3.7-2.7l5.6-16.8c7.7,1.3,15-3.8,16.3-11.5c1.3-7.7-3.8-15-11.5-16.3 c-7.7-1.3-15,3.8-16.3,11.5c-1.1,6.1,2,12.3,7.6,15l-5.6,16.7c-7.8-1.4-15.2,3.8-16.6,11.5c-1.4,7.8,3.8,15.2,11.5,16.6 c7.8,1.4,15.2-3.8,16.6-11.5c0.3-1.7,0.3-3.4,0-5.1l16.8-5.5c3.5,7.1,12.1,9.9,19.2,6.4c7.1-3.5,9.9-12.1,6.4-19.2 c-3.5-7.1-12.1-9.9-19.2-6.4C728.9,233.3,727.7,234.2,726.6,235.3L726.6,235.3z M594.1,1085.7c-6.1-4.2-13.7-9.5-15.5-15.5 l-4.6-15.3c-2.6-8.8-10.4-15.1-19.6-15.7c-1.4-3.6-5.3-5.6-9-4.7c-3.7,1-6.1,4.5-5.9,8.3c-7.9,4.8-11.9,14-10.2,23l3,15.7 c1.2,6.2-3.1,14.4-6.6,20.9c-1.6,3-0.5,6.8,2.6,8.4c1.4,0.7,2.9,0.9,4.4,0.6l20.4-5c2.4,5.2,8.6,7.4,13.8,5 c3.8-1.8,6.1-5.6,6-9.8l19.1-4.7c1.6-0.4,3-1.4,3.8-2.8c0.4-0.7,0.7-1.4,0.8-2.1C597.2,1089.5,596.1,1087,594.1,1085.7z  M883.7,633.5c4.4-4,11.2-3.6,15.2,0.9c0,0,0,0,0,0l15.8,17.8l0.2,0.2l5.5,6.2c3.9,4.4,3.6,11.2-0.9,15.2 c-2.8,2.7-3.1,7.1-0.6,10.1c2.6,3,7.1,3.2,10.1,0.6c0,0,0,0,0,0c2.2-2,4-4.3,5.4-6.9c0.2-0.4,0.4-0.7,0.5-1.1s0.3-0.8,0.5-1.1 s0.3-0.8,0.4-1.1l0.3-1c0.2-0.7,0.4-1.4,0.6-2.1c0.2-0.9,0.3-1.8,0.4-2.7l0.1-1.2V667l-0.1-1.2c0-0.4-0.1-0.8,0-1.3v-0.6 l-0.1-1.2l-0.1-0.6l-0.2-1v-0.2c-0.8-4.5-2.9-8.6-5.9-12l-21.4-24c-9.2-10.4-25.1-11.3-35.5-2.1s-11.3,25.1-2.1,35.5l17.7,19.9 c0.7,0.7,1.8,0.8,2.5,0.1c0.4-0.3,0.6-0.8,0.6-1.3v-0.7c0.2-3.9,1.2-7.8,2.9-11.3c0.3-0.7,0.2-1.5-0.3-2l-12.7-14.3 C878.9,644.3,879.3,637.4,883.7,633.5C883.7,633.5,883.7,633.5,883.7,633.5z M732,779.3l-43.7-8.7c-0.9-0.2-1.8,0.4-2,1.2 c0,0,0,0,0,0.1L674,833.1c-0.4,1.8,0.8,3.6,2.6,3.9c0.7,0.1,1.4,0.1,2-0.2l20.9-9.5l15.7,16.8c1.3,1.3,3.4,1.4,4.7,0.2 c0.5-0.5,0.9-1.1,1-1.8l12.3-61.2C733.4,780.4,732.8,779.5,732,779.3z M16.8,613.5c7.3-1.8,11.7-9.1,10-16.4 c-1.8-7.3-9.1-11.7-16.4-10c-7.3,1.8-11.7,9.1-10,16.4C2.2,610.7,9.5,615.2,16.8,613.5z M86,607.4c-0.5-1.8-2.3-2.9-4-2.4 c-0.4,0.1-0.8,0.3-1.2,0.6l-15.4,11.8l-1.4-5.8c-0.7-3-3.7-4.8-6.6-4.1c0,0-0.1,0-0.1,0L9.7,618.9c-3,0.7-4.8,3.6-4.1,6.6 c0,0,0,0.1,0,0.1l8,32.9c0.7,3,3.6,4.8,6.6,4.1c0,0,0.1,0,0.1,0l47.5-11.5c3-0.7,4.8-3.7,4.1-6.6c0,0,0-0.1,0-0.1l-1.3-5.2 l19,3.2c0.5,0.1,0.9,0,1.4-0.1c0.6-0.2,1.2-0.5,1.7-1c0.7-0.8,1-1.9,0.8-3L86,607.4z M252.5,64.9l21.8-21.2l-30.1-4.4L230.8,12 l-13.5,27.3l-30.1,4.4l21.8,21.2l-5.1,30l27-14.2l26.9,14.2L252.5,64.9z M46.9,606.2c7.2-2.1,11.3-9.6,9.2-16.8 c-2-6.7-8.7-10.9-15.6-9.5c-7.3,1.8-11.8,9.1-10,16.4C32.2,603.5,39.6,608,46.9,606.2L46.9,606.2z M322.2,884.9 c-0.9-5.8-6.3-9.7-12.1-8.8l-62.7,9.8c-5.8,0.9-9.7,6.3-8.8,12.1l7.3,47c0.9,5.8,6.3,9.7,12.1,8.8l5.2-0.8l2,13.1 c0.2,1,0.9,1.9,1.9,2.1c0.4,0.1,0.8,0.1,1.1,0.1c0.6-0.1,1.2-0.4,1.6-0.9l15.7-17.9l35.1-5.5c5.8-0.9,9.7-6.3,8.8-12.1 L322.2,884.9z M276.6,380.8l10.2-14.7c1.8-2.6,2.1-6,0.7-8.9c7.2-5.3,13.6-11.7,18.8-19l15.2-21.9c1.9-2.7,1.2-6.3-1.5-8.2 c-2.7-1.9-6.3-1.2-8.2,1.5l3.4-4.8c1.9-2.7,1.2-6.3-1.5-8.2c-2.7-1.9-6.3-1.2-8.2,1.5c1.9-2.7,1.2-6.3-1.5-8.2 c-2.7-1.9-6.3-1.2-8.2,1.5c1.9-2.7,1.2-6.4-1.5-8.2c-2.7-1.9-6.4-1.2-8.2,1.5l-15.1,21.7c-3.2-5.7-5.2-9.3-11.7-16.5 c-2.6-2.8-6.8-3-9.7-0.6c-2.5,2-2.8,5.7-0.8,8.2c3.4,4.2,7.3,21.4,6.9,36.4l-0.3-0.2c-4-2.8-9.5-1.8-12.3,2.2L233,350.5 c-0.9,1.3-0.6,3.2,0.7,4.1l38.7,26.9C273.8,382.5,275.7,382.1,276.6,380.8z M905.8,449.9l26.9-14.2l26.9,14.2l-5.1-30l21.8-21.2 l-30.1-4.4L932.8,367l-13.5,27.3l-30.1,4.4l21.8,21.2L905.8,449.9z M1453.4,49.7c-6.9-2.9-14.9,0.5-17.7,7.4 c-2.9,6.9,0.5,14.9,7.4,17.7c0.2,0.1,0.4,0.2,0.6,0.2c7.1,2.5,14.8-1.2,17.4-8.2C1463.4,60,1460.1,52.4,1453.4,49.7z M480.2,586 l-17.2-2.7l0,0.8h-0.1l0.2-0.9l-4.5-4.7l-0.4-1.8c3-3.7,4.2-8.5,3.2-13.2c0.8-2.9,0.8-5.9,0.1-8.8l-2.3-9.3 c-2.2-9.7-11.9-15.8-21.6-13.5c-0.2,0-0.4,0.1-0.6,0.1c-9.8,2.4-15.8,12.4-13.4,22.2c0,0,0,0.1,0,0.1l2.3,9.3 c0.8,3,2.3,5.8,4.6,8.1c1.5,4.4,4.7,7.9,9,9.7l0.5,1.8l-1.7,6.2l0.6,0.7h-0.1l-0.5-0.7L424.5,600c-3.1,2.4-4.8,6.1-4.7,10 l1.1,25.1l25.7-6.5l19.9-5l33.5-8.4l-10.8-22.6C487.4,589.1,484.1,586.6,480.2,586z M1825.6,1129.1c-6.8-2.1-14,1.7-16.1,8.5 c-2.1,6.8,1.7,14,8.5,16.1s14-1.7,16.1-8.5c0,0,0,0,0-0.1C1836.1,1138.4,1832.4,1131.2,1825.6,1129.1L1825.6,1129.1z  M1703.9,900.1c-0.5-0.8-1.5-1-2.3-0.5l-37.2,24.4c-0.8,0.5-1,1.5-0.5,2.3c0,0,0,0,0,0l34.2,52.2c1,1.5,3.1,2,4.6,1 c0.6-0.4,1-0.9,1.3-1.6l8.3-21.4l22.9,1c1.8,0.1,3.4-1.3,3.5-3.2c0-0.7-0.2-1.4-0.5-2L1703.9,900.1z M1861.9,1120.2l-12.3-3.8 l-4.5-9.8l-23-7.1l-9.3,5.5l-12.3-3.8c-4.2-1.3-8.7,1.1-10,5.3c0,0,0,0,0,0l-14.2,46c-1.3,4.2,1.1,8.7,5.3,10c0,0,0,0,0,0 l61.3,18.9c4.2,1.3,8.7-1.1,10-5.3c0,0,0,0,0,0l14.2-46C1868.6,1126,1866.2,1121.5,1861.9,1120.2 C1862,1120.2,1862,1120.2,1861.9,1120.2L1861.9,1120.2z M1840.9,1147.3c-3.3,10.6-14.5,16.5-25.1,13.3s-16.5-14.5-13.3-25.1 s14.5-16.5,25.1-13.3c0,0,0,0,0,0c10.5,3.1,16.5,14.2,13.4,24.7C1841.1,1147.1,1841,1147.2,1840.9,1147.3L1840.9,1147.3z  M1668.8,507.1c0.4-0.7,0.7-1.4,0.8-2.1c0.5-2.4-0.6-4.9-2.6-6.2c-6.1-4.2-13.7-9.5-15.5-15.5l-4.5-15.4 c-2.6-8.8-10.4-15.1-19.6-15.7c-1.4-3.6-5.3-5.5-9-4.7c-3.7,1-6.1,4.5-5.9,8.3c-7.9,4.8-11.9,14-10.2,23l3,15.7 c1.2,6.2-3.1,14.4-6.6,20.9c-1.6,3-0.5,6.8,2.6,8.4c1.4,0.7,2.9,0.9,4.4,0.6l20.4-5c2.4,5.2,8.6,7.4,13.8,5 c3.8-1.8,6.1-5.6,6-9.8l19.1-4.7C1666.6,509.4,1668,508.5,1668.8,507.1L1668.8,507.1z M1948.8,804.2l-14.1,14.9 c-0.5,0.6-0.5,1.4,0,2c0.3,0.3,0.6,0.4,1,0.4h0.5c3-0.1,6.1,0.4,8.9,1.4c0.5,0.2,1.1,0.1,1.5-0.3l10.1-10.7 c3-3.5,8.2-3.9,11.7-0.9c3.5,3,3.9,8.2,0.9,11.7c-0.2,0.2-0.4,0.4-0.6,0.6l-12.6,13.3l-0.1,0.1l-4.4,4.6 c-3.1,3.3-8.4,3.5-11.7,0.3c0,0,0,0,0,0c-2.2-2-5.6-1.9-7.8,0.2c-2.1,2.2-2,5.7,0.2,7.8c0,0,0,0,0,0c1.6,1.6,3.5,2.8,5.6,3.7 c0.3,0.1,0.6,0.2,0.9,0.3s0.6,0.2,0.9,0.3c0.3,0.1,0.6,0.2,0.9,0.3l0.8,0.2c0.6,0.1,1.1,0.2,1.7,0.3c0.7,0.1,1.4,0.1,2.1,0.1h1 h0.1l0.8-0.1c0.3,0,0.6-0.1,1-0.1h0.5l0.9-0.2l0.4-0.1l0.8-0.2h0.2c3.4-0.9,6.4-2.8,8.8-5.3l17.1-18.1c7.3-7.8,7-20-0.7-27.3 S1956.3,796.4,1948.8,804.2L1948.8,804.2z M1947,859h-0.6c-3,0.1-6-0.4-8.9-1.5c-0.5-0.2-1.1-0.1-1.5,0.3l-10.1,10.7 c-3.3,3.1-8.6,3-11.7-0.4c-2.9-3.1-3-7.8-0.3-11l17.2-18.1c3.1-3.3,8.4-3.5,11.7-0.3c0,0,0,0,0,0c2.2,2,5.6,1.9,7.8-0.2 c2.1-2.2,2-5.7-0.2-7.7c0,0,0,0,0,0c-1-1-2.1-1.8-3.3-2.5c-7.8-4.7-17.8-3.3-24,3.3l-17.1,18.1c-7.3,7.8-6.8,20.1,1,27.3 c7.7,7.2,19.8,6.9,27.1-0.7l14.1-14.9c0.3-0.3,0.4-0.6,0.4-1C1948.5,859.5,1947.8,858.9,1947,859 C1947.1,858.9,1947,858.9,1947,859L1947,859z M1600.1,1062.7c-6.1-4.2-13.7-9.5-15.5-15.5l-4.5-15.4 c-2.6-8.8-10.4-15.1-19.6-15.7c-1.4-3.6-5.3-5.5-9-4.7c-3.7,1-6.1,4.5-5.9,8.3c-7.9,4.8-11.9,14-10.2,23l3,15.7 c1.2,6.2-3.1,14.4-6.6,20.9c-1.6,3-0.5,6.8,2.6,8.4c1.4,0.7,2.9,0.9,4.4,0.6l20.4-5c2.4,5.2,8.6,7.4,13.8,5 c3.8-1.8,6.1-5.6,6-9.8l19.1-4.7c1.6-0.4,3-1.4,3.8-2.8c0.4-0.7,0.7-1.4,0.8-2.1C1603.2,1066.5,1602.2,1064.1,1600.1,1062.7 L1600.1,1062.7z M943.3,727.2c13.8,0.8,25.7-9.7,26.5-23.6c0.4-6.6-1.9-13.2-6.3-18.1l-17.7-19.9c-0.3-0.4-0.8-0.6-1.2-0.6 c-1,0-1.8,0.7-1.9,1.7v0.7c-0.2,3.9-1.2,7.8-2.9,11.3c-0.3,0.7-0.2,1.5,0.3,2l12.8,14.3c4.1,4.3,3.8,11.2-0.5,15.2 c-4.3,4.1-11.2,3.8-15.2-0.5c-0.1-0.1-0.2-0.3-0.4-0.4l-21.5-24.2c-3.9-4.4-3.6-11.2,0.9-15.2c2.8-2.7,3.1-7.1,0.6-10.1 c-2.6-2.9-7.1-3.2-10-0.6c0,0,0,0,0,0c-1.4,1.2-2.6,2.5-3.6,4c-6.9,9.5-6.3,22.6,1.6,31.4l21.5,24.1 C930.5,723.8,936.7,726.8,943.3,727.2z M1901.8,41.7c-6.3-3.3-14-0.9-17.3,5.4c-3.3,6.3-0.9,14,5.4,17.3 c6.3,3.3,14,0.9,17.3-5.4C1910.5,52.7,1908.1,45,1901.8,41.7C1901.8,41.7,1901.8,41.7,1901.8,41.7z M1920.1,93l22.4-42.6 c2-3.9,0.5-8.8-3.4-10.8l-56.8-29.8c-3.9-2.1-8.7-0.6-10.8,3.3c0,0,0,0,0,0l-22.4,42.6c-2.1,3.9-0.6,8.7,3.3,10.8c0,0,0,0,0,0 l11.4,6l2.7,10.5l21.3,11.2l10.1-3.8l11.4,6C1913.2,98.5,1918.1,96.9,1920.1,93z M1886.5,70.8c-9.8-5-13.6-17-8.6-26.7 c0.1-0.1,0.1-0.2,0.2-0.4c5-9.8,17-13.6,26.7-8.6c0.1,0.1,0.2,0.1,0.3,0.2c9.8,5,13.6,17,8.6,26.8c-0.1,0.1-0.1,0.2-0.2,0.3 c-5,9.8-17,13.6-26.7,8.6C1886.7,70.9,1886.6,70.9,1886.5,70.8z M1221.6,961.7c-5.7,2.9-8,9.8-5.2,15.5s9.8,8,15.5,5.2 c5.7-2.9,8-9.8,5.2-15.5c-0.2-0.4-0.5-0.9-0.7-1.3C1233.2,960.8,1226.8,959.1,1221.6,961.7L1221.6,961.7z M1203.6,927.3 c-1.8-0.2-3.5,0.8-4.2,2.4c-8.5,20-8.8,40.7,1,57.6s28,26.8,49.6,29.4c1.8,0.2,3.5-0.8,4.2-2.4c8.5-20,8.8-40.7-1-57.6 S1225.1,929.9,1203.6,927.3L1203.6,927.3z M1236.4,991.3c-10.6,5.3-23.5,0.9-28.8-9.7c-5.3-10.6-0.9-23.5,9.7-28.8 c9.7-4.8,21.4-1.7,27.4,7.3c6.6,10,3.8,23.4-6.1,30C1237.8,990.5,1237.1,990.9,1236.4,991.3L1236.4,991.3z M968.8,1071.2 c-3.1-3.2-8.1-3.3-11.3-0.2c0,0,0,0,0,0l-9.2,8.9l-10.8-0.7l-17.3,16.7l0.4,10.8l-9.2,8.9c-3.2,3.1-3.3,8.2-0.2,11.3l33.5,34.6 c3.1,3.2,8.1,3.3,11.3,0.2c0,0,0,0,0,0l46.1-44.7c3.2-3.1,3.3-8.1,0.2-11.3c0,0,0,0,0,0L968.8,1071.2z M970.8,1130.8 c-8,7.7-20.6,7.5-28.4-0.4c-7.7-8-7.5-20.6,0.4-28.4s20.6-7.5,28.4,0.4c0,0,0,0,0,0c7.7,7.8,7.6,20.4-0.2,28.1 C970.9,1130.7,970.9,1130.7,970.8,1130.8L970.8,1130.8z M947.9,1107.2c-5.1,4.9-5.2,13.1-0.3,18.2s13.1,5.2,18.2,0.3 c5.1-4.9,5.2-13.1,0.3-18.2c0,0,0,0,0,0C961.1,1102.4,953,1102.3,947.9,1107.2L947.9,1107.2z M1389,283.4 c3.2-0.6,5.3-3.7,4.7-6.9c-0.6-3.2-3.7-5.3-6.9-4.7c3.2-0.7,5.2-3.8,4.5-7c-0.7-3.1-3.6-5.1-6.7-4.6l-26,4.9 c1.7-6.3,2.8-10.3,3.2-20c0.1-3.8-2.8-6.9-6.5-7.2c-3.2-0.3-6,2.1-6.3,5.3c-0.5,5.4-9.7,20.4-20.6,30.9l-0.1-0.3 c-0.9-4.8-5.6-7.9-10.3-7l-17.6,3.3c-1.6,0.3-2.6,1.9-2.3,3.4l8.8,46.4c0.3,1.6,1.9,2.6,3.4,2.3l17.6-3.3 c3.1-0.6,5.7-2.8,6.7-5.9c8.9,1.3,17.9,1.2,26.7-0.4l26.2-5c3.2-0.6,5.4-3.6,4.8-6.8c-0.6-3.2-3.6-5.4-6.8-4.8 c-0.1,0-0.1,0-0.2,0l5.8-1.1c3.2-0.7,5.2-3.8,4.5-7C1395.1,284.9,1392.1,282.9,1389,283.4L1389,283.4z M1428.9,65.3l17.5-45.6 c1.1-2.8-0.3-6-3.1-7.2c0,0-0.1,0-0.1,0l-31.6-12.1c-2.8-1.1-6,0.3-7.2,3.1c0,0,0,0.1,0,0.1l-17.5,45.6c-1.1,2.8,0.3,6,3.1,7.2 c0,0,0.1,0,0.1,0l5,1.9l-13.5,13.8c-0.3,0.3-0.6,0.7-0.7,1.2c-0.2,0.6-0.3,1.3-0.2,2c0.3,1.1,1.1,1.9,2.1,2.3l29.7,11.4 c1.1,0.4,2.3,0.3,3.2-0.5c0.9-0.6,1.4-1.7,1.3-2.8l-1-19.3l5.6,2.1c2.8,1.1,6-0.2,7.2-3C1428.8,65.5,1428.9,65.4,1428.9,65.3 L1428.9,65.3z M1278.2,508l-17.2-2.7v0.9h-0.1l0.2-0.9l-4.5-4.6l-0.4-1.8c3-3.7,4.2-8.5,3.2-13.2c0.8-2.9,0.8-5.9,0.1-8.8 l-2.3-9.3c-2.2-9.7-11.9-15.8-21.6-13.5c-0.2,0-0.4,0.1-0.6,0.1c-9.8,2.4-15.8,12.4-13.4,22.2c0,0,0,0.1,0,0.1l2.3,9.3 c0.8,3,2.3,5.8,4.6,8.1c1.5,4.4,4.7,7.9,9,9.7l0.4,1.8l-1.7,6.2l0.6,0.7h-0.1l-0.4-0.7l-13.8,10.5c-3.1,2.4-4.8,6.1-4.7,10 l1.1,25.1l25.7-6.5l19.9-5l33.4-8.4l-10.8-22.6C1285.5,511,1282.1,508.6,1278.2,508z M1507.2,750.9c-0.9-5.8-6.3-9.7-12.1-8.8 l-62.7,9.8c-5.8,0.9-9.7,6.3-8.8,12.1l7.3,47c0.9,5.8,6.3,9.7,12.1,8.8c0,0,0,0,0,0l5.2-0.8l2,13.1c0.2,1,0.9,1.9,1.9,2.1 c0.4,0.1,0.8,0.1,1.1,0.1c0.6-0.1,1.2-0.4,1.6-0.9l15.7-17.9l35.1-5.5c5.8-0.9,9.7-6.3,8.8-12.1L1507.2,750.9z" />
</svg>
