<?xml version="1.0" standalone="no"?>
<!DOCTYPE svg PUBLIC "-//W3C//DTD SVG 20010904//EN"
 "http://www.w3.org/TR/2001/REC-SVG-20010904/DTD/svg10.dtd">
<svg version="1.0" xmlns="http://www.w3.org/2000/svg"
 width="225.000000pt" height="65.000000pt" viewBox="0 0 225.000000 65.000000"
 preserveAspectRatio="xMidYMid meet">

<g transform="translate(0.000000,65.000000) scale(0.100000,-0.100000)"
fill="#000000" stroke="none">
<path d="M1910 637 c0 -7 9 -23 19 -36 17 -23 18 -27 4 -48 l-15 -23 38 16
c49 20 52 23 63 62 11 36 0 49 -23 27 -13 -14 -19 -14 -51 -1 -26 11 -35 12
-35 3z"/>
<path d="M211 580 c-40 -18 -43 -19 -37 -2 3 9 -7 1 -23 -18 -37 -44 -76 -159
-67 -196 9 -36 38 -72 81 -101 19 -13 35 -32 35 -41 0 -10 -22 -39 -49 -64
-45 -43 -50 -45 -64 -30 -24 28 -46 78 -62 139 l-15 58 6 -50 c12 -101 73
-188 162 -232 76 -37 184 -40 249 -5 55 29 110 78 128 113 23 43 0 44 -26 2
l-24 -38 -7 44 c-4 24 -10 52 -13 62 -4 13 -2 19 9 19 21 0 20 9 -2 42 -18 27
-19 27 -43 11 -20 -15 -19 -11 9 22 36 45 41 60 13 45 -33 -17 -35 -12 -9 23
46 60 46 59 -20 56 -51 -3 -65 0 -93 20 -29 22 -36 23 -78 13 -32 -7 -50 -7
-58 0 -18 15 -16 22 14 57 25 29 32 31 92 31 78 0 135 -25 182 -77 44 -51 61
-96 69 -183 l7 -75 2 75 c2 54 5 68 11 50 5 -16 8 -19 9 -8 1 10 -8 41 -19 71
-54 145 -236 227 -369 167z m95 -176 c7 -28 -24 -71 -33 -47 -3 7 -13 23 -23
35 -17 21 -20 22 -35 7 -8 -8 -17 -24 -19 -36 -4 -17 2 -22 35 -27 54 -9 109
-66 63 -66 -10 0 -14 -6 -10 -17 18 -62 18 -70 -8 -86 -14 -10 -34 -17 -46
-17 -17 0 -20 6 -20 45 0 34 -5 49 -22 63 -53 42 -86 85 -78 101 5 9 11 24 14
34 5 15 9 15 25 5 16 -9 24 -8 46 8 71 49 98 49 111 -2z m69 -28 c-27 -24 -51
-43 -51 -43 -1 1 0 16 3 33 4 26 9 30 28 27 13 -3 28 2 36 11 8 8 19 15 24 15
6 1 -12 -19 -40 -43z m-130 14 c3 -5 1 -10 -4 -10 -6 0 -11 5 -11 10 0 6 2 10
4 10 3 0 8 -4 11 -10z m195 -75 c-31 -33 -55 -39 -81 -21 -22 15 -22 15 7 21
16 4 40 11 54 15 41 14 45 11 20 -15z m50 -56 c0 -5 -15 -9 -34 -9 -24 0 -48
-11 -86 -42 -52 -41 -53 -42 -48 -16 3 17 0 29 -8 32 -8 3 -14 11 -14 18 0 9
19 13 65 13 47 0 69 4 81 17 13 13 21 15 31 6 7 -6 13 -14 13 -19z"/>
<path d="M1918 522 c-57 -3 -58 -4 -58 -32 0 -24 4 -30 20 -30 19 0 21 -5 18
-72 -2 -57 -6 -73 -18 -73 -10 0 -15 -10 -15 -30 0 -30 0 -30 63 -33 l62 -3 0
29 c0 17 -6 32 -15 36 -11 4 -15 22 -15 76 0 56 3 70 15 70 10 0 15 10 15 29
0 36 -1 37 -72 33z"/>
<path d="M736 489 c-79 -68 -62 -186 31 -225 45 -19 82 -17 122 7 34 20 34 21
14 40 -16 17 -24 18 -47 9 -40 -15 -54 -13 -81 15 -50 49 -20 125 48 125 18 0
37 -4 43 -10 11 -11 54 14 54 30 0 18 -59 40 -104 40 -36 0 -52 -6 -80 -31z"/>
<path d="M952 388 l3 -133 30 0 c29 0 30 2 33 53 l3 52 40 0 39 0 0 -55 c0
-54 0 -55 30 -55 l30 0 0 135 0 135 -30 0 c-29 0 -30 -1 -30 -50 l0 -50 -40 0
-40 0 0 50 0 50 -35 0 -36 0 3 -132z"/>
<path d="M1210 490 c0 -24 4 -30 20 -30 19 0 21 -5 18 -72 -2 -57 -6 -73 -18
-73 -10 0 -15 -10 -15 -30 0 -30 0 -30 63 -33 l62 -3 0 29 c0 17 -6 32 -15 36
-11 4 -15 22 -15 76 0 56 3 70 15 70 10 0 15 10 15 30 l0 30 -65 0 -65 0 0
-30z"/>
<path d="M1392 388 l3 -133 50 -3 c67 -4 112 5 136 29 23 23 25 72 4 93 -12
12 -13 20 -5 35 18 34 12 68 -16 90 -22 17 -41 21 -101 21 l-74 0 3 -132z
m133 52 c0 -10 -12 -16 -32 -18 -28 -3 -33 0 -33 18 0 18 5 21 33 18 20 -2 32
-8 32 -18z m11 -92 c9 -15 -25 -40 -51 -36 -12 2 -21 12 -23 26 -3 19 1 22 32
22 19 0 38 -5 42 -12z"/>
<path d="M1630 384 l0 -137 80 5 c96 6 120 22 120 78 0 21 -7 43 -15 50 -12
10 -12 15 1 35 19 28 10 70 -19 90 -14 10 -46 15 -94 15 l-73 0 0 -136z m130
56 c0 -16 -7 -20 -35 -20 -28 0 -35 4 -35 20 0 16 7 20 35 20 28 0 35 -4 35
-20z m10 -99 c0 -13 -9 -21 -30 -26 -36 -8 -50 0 -50 26 0 16 7 19 40 19 33 0
40 -3 40 -19z"/>
<path d="M2056 495 c-55 -51 -21 -117 69 -132 35 -6 51 -14 53 -25 5 -26 -40
-33 -79 -14 -30 15 -34 15 -51 0 -26 -24 -23 -31 24 -55 31 -16 53 -20 87 -16
112 13 123 144 14 162 -61 11 -73 16 -73 31 0 16 51 19 79 4 18 -9 61 11 61
29 0 16 -68 41 -113 41 -33 0 -51 -6 -71 -25z"/>
<path d="M560 211 c0 -6 4 -13 10 -16 6 -3 7 1 4 9 -7 18 -14 21 -14 7z"/>
<path d="M1099 161 c13 -8 13 -12 1 -27 -14 -15 -15 -15 -21 7 -5 18 -7 14 -8
-18 -1 -45 11 -55 28 -25 10 16 10 16 11 0 0 -10 5 -18 10 -18 6 0 10 15 10
33 0 33 -15 57 -34 57 -6 0 -5 -4 3 -9z"/>
<path d="M697 153 c-4 -3 -7 -21 -7 -40 0 -36 23 -54 43 -34 8 8 7 11 -6 11
-22 0 -22 17 1 23 16 4 16 5 0 6 -22 1 -24 21 -3 21 8 0 15 5 15 10 0 11 -33
14 -43 3z"/>
<path d="M765 148 c-2 -7 -6 -29 -9 -48 -6 -34 -5 -35 30 -36 31 0 35 2 30 20
-3 12 -6 33 -6 49 0 20 -5 27 -20 27 -11 0 -22 -6 -25 -12z m35 -33 c0 -14 -6
-25 -14 -25 -9 0 -12 8 -8 25 2 14 8 25 13 25 5 0 9 -11 9 -25z"/>
<path d="M831 123 c-1 -47 5 -52 25 -25 13 16 13 16 14 0 0 -33 20 -18 20 15
0 44 -10 52 -29 25 l-15 -22 -7 24 c-6 20 -7 16 -8 -17z"/>
<path d="M908 154 c-12 -11 -10 -74 2 -74 6 0 10 7 10 15 0 21 28 19 33 -2 3
-10 5 2 5 27 1 36 -1 41 -8 23 -12 -29 -28 -30 -32 -2 -2 11 -6 17 -10 13z"/>
<path d="M981 118 c-1 -48 3 -53 33 -42 23 9 20 45 -3 51 -11 3 -22 12 -24 22
-3 9 -5 -5 -6 -31z m29 -18 c0 -5 -4 -10 -10 -10 -5 0 -10 5 -10 10 0 6 5 10
10 10 6 0 10 -4 10 -10z"/>
<path d="M1043 120 c0 -25 2 -35 4 -22 2 12 2 32 0 45 -2 12 -4 2 -4 -23z"/>
<path d="M1183 153 c-7 -2 -13 -17 -13 -33 0 -30 23 -56 40 -45 16 10 12 23
-7 21 -12 -1 -18 6 -18 19 0 13 6 19 18 19 10 -1 16 3 14 9 -4 13 -18 17 -34
10z"/>
<path d="M1240 115 c0 -33 4 -45 14 -45 8 0 18 5 21 10 3 6 -1 10 -9 10 -9 0
-16 5 -16 10 0 6 8 10 17 10 15 0 14 2 -3 15 -17 13 -17 14 -1 15 24 0 22 20
-3 20 -17 0 -20 -7 -20 -45z"/>
<path d="M1297 153 c-8 -8 -9 -73 -2 -73 3 0 18 11 32 24 22 21 24 27 14 40
-14 17 -33 21 -44 9z m33 -23 c0 -5 -4 -10 -10 -10 -5 0 -10 5 -10 10 0 6 5
10 10 10 6 0 10 -4 10 -10z"/>
<path d="M1360 121 c0 -45 11 -57 39 -42 27 15 15 75 -17 79 -20 3 -22 -1 -22
-37z m40 15 c0 -3 -4 -8 -10 -11 -5 -3 -10 -1 -10 4 0 6 5 11 10 11 6 0 10 -2
10 -4z m0 -36 c0 -5 -4 -10 -10 -10 -5 0 -10 5 -10 10 0 6 5 10 10 10 6 0 10
-4 10 -10z"/>
<path d="M1431 123 c-1 -47 5 -52 25 -25 13 16 13 16 14 0 0 -34 20 -18 20 16
0 43 -15 54 -31 24 l-13 -23 -7 25 c-6 20 -7 17 -8 -17z"/>
<path d="M1512 148 c-16 -16 -15 -53 3 -68 15 -12 35 -6 35 11 0 6 -5 7 -11 3
-14 -8 -29 14 -22 33 3 7 15 13 27 13 17 0 18 2 6 10 -19 13 -24 12 -38 -2z"/>
<path d="M1600 150 c-12 -8 -10 -10 10 -10 24 -1 24 -1 6 -15 -17 -13 -18 -15
-3 -15 9 0 17 -4 17 -10 0 -5 -10 -10 -22 -10 -21 -1 -21 -2 -5 -11 35 -20 58
29 33 69 -9 14 -16 15 -36 2z"/>
<path d="M1670 134 c-6 -16 -12 -34 -14 -39 -2 -6 10 -11 29 -11 32 0 32 1 22
31 -15 46 -25 51 -37 19z m17 -26 c-3 -8 -6 -5 -6 6 -1 11 2 17 5 13 3 -3 4
-12 1 -19z"/>
<path d="M1732 120 c0 -25 2 -39 5 -32 4 10 9 9 24 -4 21 -19 24 -13 8 18 -8
14 -8 23 0 31 19 19 12 31 -8 13 -18 -17 -19 -17 -24 1 -3 10 -5 -2 -5 -27z"/>
<path d="M1806 143 c-2 -10 -8 -29 -11 -42 -6 -20 -4 -23 10 -17 10 3 24 1 31
-5 18 -14 19 5 3 50 -12 35 -25 40 -33 14z m24 -33 c0 -5 -2 -10 -4 -10 -3 0
-8 5 -11 10 -3 6 -1 10 4 10 6 0 11 -4 11 -10z"/>
<path d="M1865 151 c-3 -6 1 -11 9 -11 9 0 16 -4 16 -10 0 -5 -5 -10 -12 -10
-6 0 -3 -7 8 -15 18 -14 18 -14 -5 -15 -19 0 -22 -3 -14 -11 22 -22 42 -2 40
38 -2 38 -27 58 -42 34z"/>
<path d="M1936 136 c-3 -13 -9 -32 -13 -42 -5 -14 -3 -16 12 -11 9 4 24 2 31
-4 18 -14 19 5 3 50 -13 37 -25 40 -33 7z m24 -26 c0 -5 -2 -10 -4 -10 -3 0
-8 5 -11 10 -3 6 -1 10 4 10 6 0 11 -4 11 -10z"/>
<path d="M2022 118 c2 -31 8 -44 21 -46 9 -2 17 1 17 7 0 6 -7 11 -15 11 -8 0
-15 5 -15 10 0 6 8 10 17 10 15 0 14 2 -3 15 -17 13 -17 14 -1 15 24 0 21 20
-4 20 -18 0 -20 -5 -17 -42z"/>
<path d="M2081 116 c-6 -25 -11 -47 -11 -49 0 -2 16 -3 35 -3 l36 1 -3 45 c-2
37 -7 46 -24 48 -18 3 -23 -5 -33 -42z m39 -1 c0 -14 -4 -25 -10 -25 -5 0 -10
11 -10 25 0 14 5 25 10 25 6 0 10 -11 10 -25z"/>
<path d="M2152 120 c3 -39 6 -45 23 -42 11 2 28 3 38 3 13 0 17 9 17 35 0 37
-17 47 -22 13 -3 -21 -4 -20 -31 7 l-28 28 3 -44z m38 -20 c0 -5 -4 -10 -10
-10 -5 0 -10 5 -10 10 0 6 5 10 10 10 6 0 10 -4 10 -10z"/>
</g>
</svg>
