<?xml version="1.0" standalone="no"?>
<!DOCTYPE svg PUBLIC "-//W3C//DTD SVG 20010904//EN"
 "http://www.w3.org/TR/2001/REC-SVG-20010904/DTD/svg10.dtd">
<svg version="1.0" xmlns="http://www.w3.org/2000/svg"
 width="390.000000pt" height="390.000000pt" viewBox="0 0 390.000000 390.000000"
 preserveAspectRatio="xMidYMid meet">
<metadata>
Created by potrace 1.11, written by Peter Selinger 2001-2013
</metadata>
<g transform="translate(0.000000,390.000000) scale(0.100000,-0.100000)"
fill="#000000" stroke="none">
<path d="M1589 3506 c-142 -94 -277 -247 -360 -409 -24 -48 -47 -87 -51 -87
-15 0 -7 85 12 140 10 30 17 56 15 59 -8 8 -67 -98 -96 -173 -50 -129 -62
-203 -56 -351 6 -163 15 -191 162 -495 122 -255 157 -351 175 -481 6 -46 22
-132 36 -191 28 -122 31 -241 10 -313 -29 -93 -175 -275 -222 -275 -72 0 -172
96 -234 224 -21 45 -54 140 -74 211 -65 243 -89 286 -163 298 -40 7 -42 9 -47
50 -3 23 -8 100 -11 171 -6 151 -24 205 -75 231 -66 34 -135 -6 -172 -100 -39
-100 -43 -306 -8 -436 9 -32 9 -53 -1 -86 -45 -161 79 -381 331 -587 41 -33
111 -95 156 -136 85 -80 129 -101 274 -129 46 -10 351 -51 372 -51 4 0 14 -7
23 -17 14 -13 15 -27 10 -75 -7 -59 -7 -60 14 -49 35 19 26 -20 -29 -125 -27
-52 -50 -104 -50 -115 0 -11 13 -32 28 -47 16 -15 33 -36 37 -47 8 -20 8 -20
13 -1 2 11 14 28 27 38 26 21 62 98 71 157 4 22 10 41 15 41 4 0 25 -21 46
-47 81 -99 109 -126 153 -147 29 -14 45 -28 44 -39 -2 -23 13 -12 32 25 10 20
14 45 11 69 l-5 37 62 4 c41 3 65 0 72 -9 15 -17 24 -6 24 28 0 43 -56 88
-127 104 -62 13 -49 28 21 23 l66 -4 -31 19 c-23 15 -39 18 -72 12 -108 -18
-107 -18 -107 -1 0 9 11 18 28 21 15 4 35 10 44 16 23 12 48 12 48 -1 0 -13
25 -13 48 -1 9 6 69 15 133 20 180 17 258 13 243 -11 -4 -6 -54 -7 -133 -3
-86 5 -123 4 -116 -3 11 -11 163 -32 237 -32 26 0 50 -5 53 -10 5 -8 11 -7 21
0 7 7 19 10 26 7 7 -2 23 0 35 4 13 5 36 6 53 3 25 -6 28 -9 19 -26 -5 -10 -7
-28 -3 -40 6 -21 5 -21 -77 -15 -46 3 -145 22 -219 41 -74 20 -146 38 -160 42
-54 12 11 -25 99 -56 137 -50 149 -57 143 -85 -5 -28 -11 -30 -47 -13 -20 9
-26 18 -22 35 5 28 -13 31 -20 3 -4 -16 -9 -18 -24 -9 -10 5 -19 19 -19 31 0
16 -3 18 -14 9 -11 -9 -26 -7 -65 8 -79 30 -63 2 27 -46 93 -50 180 -75 234
-67 44 7 45 12 18 47 -11 14 -20 28 -20 32 0 3 37 3 83 0 56 -5 98 -2 135 7
l53 14 -23 34 c-37 53 -68 71 -139 77 -49 5 -73 13 -104 36 l-40 29 -162 -7
-163 -7 0 40 c0 58 29 86 152 148 61 30 145 78 187 107 103 70 252 216 308
300 90 136 133 326 113 505 -5 48 -12 97 -16 110 -3 12 -4 22 -1 22 4 0 35
-15 69 -34 80 -44 126 -53 165 -32 53 27 151 186 330 536 108 211 126 259 121
337 -5 78 -28 113 -88 130 -27 8 -63 31 -99 66 -44 42 -65 55 -101 61 -24 4
-67 20 -96 36 -28 17 -57 30 -63 30 -6 0 -41 -27 -76 -60 -35 -33 -69 -60 -74
-60 -5 0 -38 13 -73 29 -96 44 -104 45 -129 20 -28 -28 -22 -94 15 -150 15
-22 24 -44 21 -49 -10 -17 -197 -71 -264 -77 -36 -3 -64 -3 -61 -1 3 3 43 28
90 56 102 60 127 84 107 101 -36 29 -213 73 -349 87 -44 4 -68 11 -68 19 0 11
-57 94 -129 187 -26 35 -28 43 -29 142 -2 139 -33 216 -87 216 -33 0 -35 -16
-14 -95 17 -64 25 -135 15 -135 -2 0 -34 14 -71 31 -54 26 -83 33 -156 37
-106 6 -108 10 -50 99 84 131 233 203 420 203 75 0 83 2 66 13 -63 43 -228 59
-337 33 -116 -27 -262 -110 -360 -204 -86 -82 -4 67 96 176 32 34 57 62 55 62
-2 -1 -34 -20 -70 -44z m459 -341 c17 -102 -11 -210 -61 -236 l-22 -12 21 24
c12 13 27 35 34 47 17 33 24 159 12 211 -6 24 -7 39 -2 35 5 -5 13 -36 18 -69z
m-318 -161 l35 -14 -42 6 c-98 13 -196 -46 -243 -146 l-20 -45 4 48 c10 125
143 201 266 151z m460 -203 c0 -34 -16 -15 -24 29 -7 33 -6 34 9 16 8 -11 15
-31 15 -45z m-431 -3 c33 -34 44 -84 39 -172 -5 -96 -28 -152 -74 -178 -18
-10 -79 -25 -140 -33 -217 -30 -242 -36 -283 -66 -23 -16 -51 -50 -65 -76
l-24 -47 -37 73 c-34 68 -65 178 -64 226 0 19 1 18 11 -2 27 -55 34 3 12 92
-4 16 0 14 17 -8 30 -40 70 -57 131 -57 86 0 144 34 224 131 88 106 133 139
190 139 31 0 49 -6 63 -22z m1420 -7 c25 -16 63 -32 83 -35 27 -5 45 -17 68
-46 17 -21 51 -48 75 -60 71 -34 88 -63 83 -140 -7 -101 -65 -237 -224 -516
-95 -168 -157 -263 -189 -287 -30 -23 -149 28 -228 98 -26 23 -123 175 -111
175 2 0 22 -9 42 -19 70 -36 184 -64 259 -65 66 0 94 6 81 19 -2 3 -32 8 -66
11 -34 4 -62 10 -62 13 1 16 28 39 59 49 19 7 55 25 80 41 25 16 67 39 94 51
50 24 70 58 47 85 -18 22 -77 35 -126 28 -64 -8 -57 15 14 52 123 63 212 125
212 146 0 4 -39 -16 -87 -45 -49 -29 -118 -65 -154 -81 l-67 -28 -7 -79 c-3
-43 -4 -82 0 -88 13 -22 25 -8 25 29 0 42 1 43 67 56 34 7 73 -1 73 -14 0 -8
-75 -58 -127 -85 -43 -22 -90 -21 -96 2 -3 9 -8 40 -12 67 -4 28 -20 78 -37
113 -17 34 -28 68 -25 76 3 8 35 29 72 46 36 17 100 57 143 89 142 108 152
142 11 40 -94 -68 -144 -96 -203 -113 -69 -20 -71 -49 -16 -200 13 -36 19 -69
15 -86 -6 -26 -8 -28 -35 -19 -34 12 -56 43 -65 91 -4 19 -17 52 -30 74 -68
112 -69 114 -48 143 20 26 86 74 230 166 81 51 163 120 163 137 0 6 -21 -6
-47 -26 -267 -202 -464 -295 -624 -296 -75 0 -118 16 -125 47 -10 39 12 50
120 63 218 26 370 104 540 279 40 42 77 71 89 71 11 0 41 -13 66 -29z m-330
-51 c24 -11 50 -20 59 -20 11 0 3 -13 -23 -40 -21 -22 -45 -40 -52 -40 -19 0
-53 60 -53 93 0 32 10 33 69 7z m-419 -34 c36 -8 79 -20 95 -26 30 -12 29 -12
-51 -35 -160 -47 -348 -131 -499 -223 -104 -62 -144 -79 -171 -68 -13 5 -12
11 8 47 13 23 38 53 55 66 44 34 71 80 83 144 12 64 39 95 94 108 55 14 305 5
386 -13z m-114 -173 c-3 -10 -10 -38 -16 -62 -30 -116 -103 -224 -160 -236
-66 -14 -242 50 -248 91 -4 27 12 37 199 124 85 39 168 78 184 85 40 19 47 19
41 -2z m46 -235 c-9 -9 -17 -9 -37 0 -32 15 -41 37 -24 58 11 13 16 12 43 -15
23 -24 28 -33 18 -43z m-632 6 c48 -49 51 -54 22 -38 -37 21 -99 94 -79 94 1
0 27 -25 57 -56z m-241 6 c141 -72 194 -243 112 -365 -69 -102 -138 -158 -166
-135 -8 7 -24 37 -35 68 -12 31 -41 93 -66 138 -49 91 -84 183 -84 224 0 85
134 124 239 70z m1215 -7 c11 -14 42 -67 69 -117 59 -110 86 -140 146 -163 25
-9 47 -18 49 -19 10 -7 -33 -54 -49 -54 -25 0 -250 116 -330 170 -44 31 -58
45 -50 53 18 18 13 36 -21 78 -17 21 -29 40 -27 42 6 5 151 34 174 35 11 1 29
-10 39 -25z m-220 -42 c25 -33 46 -62 46 -65 0 -3 -51 -6 -114 -6 -111 0 -115
-1 -118 -22 -3 -20 -9 -23 -43 -22 -38 0 -43 -4 -118 -93 -43 -51 -82 -93 -86
-93 -5 0 -14 21 -21 46 -7 25 -34 81 -59 123 l-47 77 66 -12 c36 -7 97 -15
136 -19 69 -7 71 -6 88 20 16 24 22 27 55 21 35 -5 43 -2 101 49 35 30 64 55
65 55 1 0 23 -27 49 -59z m-788 18 c19 -22 19 -22 -3 -10 -24 12 -39 31 -25
31 5 0 17 -10 28 -21z m-1109 -221 c32 -36 43 -83 54 -223 31 -414 132 -697
316 -886 47 -49 52 -57 36 -63 -14 -6 -34 9 -91 69 -84 90 -190 245 -293 434
-50 91 -83 139 -102 150 -40 23 -59 92 -64 244 -4 103 -2 142 12 193 26 96 86
133 132 82z m1179 -199 c107 -54 185 -151 226 -280 31 -99 31 -276 0 -390 -68
-250 -231 -428 -457 -499 -109 -34 -276 -39 -385 -11 -81 20 -160 60 -217 109
l-28 23 40 -5 c22 -3 105 -8 185 -12 119 -5 157 -4 210 10 58 15 117 43 108
51 -1 2 -41 -5 -88 -16 -95 -21 -234 -25 -294 -8 -51 14 -36 23 64 39 173 27
254 55 299 104 32 34 16 33 -39 -4 -25 -16 -56 -30 -69 -30 -21 0 -17 7 35 63
136 145 172 301 119 519 -14 57 -25 121 -25 142 0 53 36 121 89 167 73 64 137
72 227 28z m-972 -281 c13 -24 49 -122 80 -218 77 -244 141 -370 215 -424 33
-25 31 -36 -6 -36 -50 0 -174 154 -243 304 -60 128 -129 367 -116 401 11 29
44 16 70 -27z m-276 -120 c15 -24 50 -81 77 -128 86 -152 214 -337 283 -409
62 -66 65 -71 41 -71 -54 0 -227 139 -327 264 -105 131 -162 283 -132 355 7
17 16 31 21 31 4 0 21 -19 37 -42z m1544 -960 c-6 -6 -17 -6 -28 0 -11 5 -28
6 -38 2 -30 -10 -68 0 -62 17 3 8 6 27 6 43 0 27 4 29 63 42 l62 13 3 -54 c2
-30 -1 -58 -6 -63z m-168 76 c20 -19 20 -35 1 -81 -11 -25 -12 -39 -5 -43 6
-4 8 -14 5 -23 -5 -13 -12 -14 -37 -5 -57 20 -88 110 -51 150 20 22 66 24 87
2z m-136 -41 c0 -24 -4 -43 -9 -44 -35 -3 -67 -2 -77 5 -7 4 -20 5 -30 2 -15
-5 -17 0 -14 40 l4 45 63 -3 63 -3 0 -42z m-14 -80 c15 6 53 -29 43 -39 -14
-14 27 -66 81 -103 55 -37 90 -69 81 -74 -53 -30 -57 -30 -39 3 11 20 1 33
-16 22 -6 -4 -16 -16 -22 -27 -10 -19 -12 -17 -26 17 -9 20 -13 43 -10 51 3 8
1 18 -5 21 -5 4 -13 -3 -16 -15 -7 -21 -7 -21 -22 3 -29 43 -67 78 -83 78 -9
0 -22 -11 -28 -25 -6 -14 -18 -25 -27 -25 -19 0 -20 -16 0 -24 23 -8 19 -38
-5 -34 -24 4 -25 0 -9 -35 9 -21 10 -30 1 -39 -9 -9 -12 -8 -12 5 0 11 -8 17
-25 17 -14 0 -25 6 -25 13 0 7 20 53 45 101 25 49 45 95 45 103 0 8 4 12 9 8
5 -3 13 -1 16 5 5 8 11 7 21 -1 7 -6 20 -9 28 -6z m211 -97 c81 -14 119 -27
105 -36 -7 -5 -11 -17 -7 -30 3 -14 1 -20 -6 -17 -7 2 -12 16 -12 30 1 30 -22
37 -32 11 -5 -14 -9 -13 -24 7 -15 19 -21 21 -28 10 -12 -19 -44 -6 -88 35
l-37 35 45 -19 c24 -10 62 -22 84 -26z"/>
<path d="M1595 2736 c-50 -53 -60 -139 -24 -213 62 -129 201 -69 201 87 0 137
-100 208 -177 126z m121 -3 c3 -10 10 -26 15 -36 7 -13 6 -23 -2 -33 -10 -13
-16 -11 -41 12 -31 30 -34 44 -16 62 17 17 38 15 44 -5z m-8 -180 c-9 -8 -28
-13 -43 -11 l-28 3 39 21 c40 21 58 14 32 -13z"/>
<path d="M2130 2690 c7 -4 -5 -10 -32 -14 -57 -9 -111 -41 -106 -64 3 -14 15
-17 78 -15 70 2 72 1 51 -14 -18 -12 -20 -17 -10 -24 11 -7 11 -9 1 -9 -7 0
-10 -4 -7 -10 3 -5 1 -10 -6 -10 -7 0 -9 -3 -6 -6 4 -4 17 0 29 8 13 8 26 16
31 16 4 1 24 9 45 18 73 32 168 66 232 84 36 10 57 19 47 19 -10 1 -59 5 -110
11 -133 14 -252 19 -237 10z m-30 -60 c-8 -5 -26 -10 -40 -10 -20 0 -22 2 -10
10 8 5 26 10 40 10 20 0 22 -2 10 -10z"/>
<path d="M2215 2409 c-16 -16 -67 -49 -112 -72 -46 -23 -83 -45 -83 -50 0 -10
41 -25 60 -21 8 1 21 3 29 3 11 1 84 71 117 113 11 14 28 59 22 57 -2 0 -16
-14 -33 -30z"/>
</g>
</svg>
